<svg xmlns="http://www.w3.org/2000/svg" viewBox="0 0 186.26 34.34"><defs><style>.cls-1{fill:none;}.cls-2{fill:#d0d6e3;}</style></defs><g id="Layer_2" data-name="Layer 2"><g id="Layer_1-2" data-name="Layer 1"><path class="cls-1" d="M8.58,10.77a5,5,0,0,0,2.16.32.79.79,0,0,1,.6-.47.81.81,0,0,1,.27,1.6.8.8,0,0,1-.78-.32l-.41,0A6.37,6.37,0,0,1,9,11.76a4.24,4.24,0,0,0,3.56,2.49c2.35,0,4.28-2.59,4.53-5.93a4.65,4.65,0,0,0,.05-.66l-.73.85c.4-.9-1-3.18-1-3.18-2.42,1.76-6,0-6,0-1.09.43-.58,3.49-.58,3.49a2.4,2.4,0,0,0-.72-.34A9.12,9.12,0,0,0,8.58,10.77Z"/><path class="cls-2" d="M24,19.49H1.58a1.4,1.4,0,0,0-1.4,1.4l1.87,10.8a1.41,1.41,0,0,0,1.4,1.42H22.1a1.4,1.4,0,0,0,1.4-1.4l1.87-10.84A1.4,1.4,0,0,0,24,19.49ZM12.78,26.78a.67.67,0,1,1,.67-.67A.67.67,0,0,1,12.78,26.78Z"/><path class="cls-2" d="M18.08,14.67a1.39,1.39,0,0,0-1.43.52,5.11,5.11,0,0,1-3.87,1.33,5.07,5.07,0,0,1-3.87-1.33,1.4,1.4,0,0,0-1.43-.52,6.56,6.56,0,0,0-4.75,4.21h20.1A6.58,6.58,0,0,0,18.08,14.67Z"/><path class="cls-2" d="M23.36,33.6H2.19a.38.38,0,0,0-.37.37.37.37,0,0,0,.37.37H23.36a.36.36,0,0,0,.37-.37A.37.37,0,0,0,23.36,33.6Z"/><path class="cls-1" d="M3.45,33.29H22.1a1.58,1.58,0,0,0,1.59-1.57l1.86-10.83A1.59,1.59,0,0,0,24,19.3H1.58A1.59,1.59,0,0,0,0,20.9L1.86,31.71A1.59,1.59,0,0,0,3.45,33.29ZM1.58,19.49H24a1.4,1.4,0,0,1,1.4,1.38L23.5,31.71a1.4,1.4,0,0,1-1.4,1.4H3.45a1.41,1.41,0,0,1-1.4-1.42L.19,20.89A1.4,1.4,0,0,1,1.58,19.49Z"/><path class="cls-2" d="M6.18,10.65a.61.61,0,0,0,.45-.27,4,4,0,0,0,1.23.95,2.84,2.84,0,0,0,.32.14c.92,2.15,2.55,3.58,4.41,3.58,2.67,0,4.88-3,5.16-6.75a5.84,5.84,0,0,0,0-1.67A5.31,5.31,0,0,0,12.59,2,5.3,5.3,0,0,0,7.43,6.63a5.69,5.69,0,0,0-.06.83c0,.12,0,.23,0,.35a4.28,4.28,0,0,0,0,.49.66.66,0,0,0,0,.14,11.23,11.23,0,0,0,.34,1.9A2.81,2.81,0,0,1,7,9.56a5.58,5.58,0,0,0,.2-1.51c0-.14,0-.27,0-.4A6.22,6.22,0,0,1,9,2.68a5.17,5.17,0,0,1,7.2,0,6.18,6.18,0,0,1,1.8,5c0,.13,0,.26,0,.4,0,1.43.47,2.6,1,2.6s1-1.17,1-2.6a3.26,3.26,0,0,0-.79-2.52A7.21,7.21,0,0,0,12.61,0,7.2,7.2,0,0,0,5.93,5.53a3.23,3.23,0,0,0-.79,2.52C5.14,9.48,5.6,10.65,6.18,10.65Zm3.6-5.14c.94.36,3.29,1.09,5.16.11a.55.55,0,0,1,.75.22c.4.72,1,2,.75,2.67l.73-.85a4.65,4.65,0,0,1-.05.66c-.25,3.34-2.18,5.93-4.53,5.93A4.24,4.24,0,0,1,9,11.76a6.37,6.37,0,0,0,1.39.16l.41,0a.8.8,0,0,0,.78.32.81.81,0,0,0-.27-1.6.79.79,0,0,0-.6.47,5,5,0,0,1-2.16-.32,9.12,9.12,0,0,1-.51-2.29,2.4,2.4,0,0,1,.72.34,7,7,0,0,1,.1-3A.68.68,0,0,1,9.78,5.51Z"/><polygon class="cls-2" points="40.94 15.43 40.94 17.06 50.23 17.06 50.23 19.12 40.94 19.12 40.94 20.75 50.23 20.75 50.23 24.37 35.89 24.37 35.89 11.81 50.23 11.81 50.23 15.43 40.94 15.43"/><polygon class="cls-2" points="72.68 15.43 72.68 17.06 81.97 17.06 81.97 19.12 72.68 19.12 72.68 20.75 81.97 20.75 81.97 24.37 67.62 24.37 67.62 11.81 81.97 11.81 81.97 15.43 72.68 15.43"/><polygon class="cls-2" points="66.34 20.75 66.34 24.37 52.06 24.37 52.06 11.55 57.73 11.55 57.73 20.75 66.34 20.75"/><polygon class="cls-2" points="112.38 8.32 101.72 28.31 90.5 28.31 81.96 8.32 90.79 8.32 96.47 20.91 103.44 8.32 112.38 8.32"/><path class="cls-2" d="M119.86,15.09h-6.5L102.71,34.34h5.92l2.21-3.88h11.74l2.12,3.88h5.88Zm-6.5,11,3.26-6.22,3.55,6.22Z"/><polygon class="cls-2" points="141.75 12.63 141.75 15.07 137.29 15.07 137.29 24.37 132.3 24.37 132.3 15.07 127.86 15.07 127.86 12.63 141.75 12.63"/><rect class="cls-2" x="143.94" y="12.63" width="4.51" height="11.74"/><path class="cls-2" d="M158.9,11.66c-4.56,0-8.24,2.84-8.24,6.35s3.68,6.36,8.24,6.36,8.25-2.84,8.25-6.36S163.44,11.66,158.9,11.66Zm0,9.32c-2.15,0-3.88-1.34-3.88-3s1.73-3,3.88-3,3.85,1.33,3.85,3S161,21,158.9,21Z"/><polyline class="cls-2" points="175.61 12.63 181.86 20.08 181.86 12.63 186.26 12.63 186.26 24.04 180.81 24.04 175.04 17.16 174.03 16.15 174.03 24.04 169.63 24.04 169.63 12.63"/></g></g></svg>